<svg id="ejvxSqZK9n41" xmlns="http://www.w3.org/2000/svg" xmlns:xlink="http://www.w3.org/1999/xlink" viewBox="0 0 464.67 639.14" shape-rendering="geometricPrecision" text-rendering="geometricPrecision" width="464.6700134277344" height="639.1400146484375"><defs><linearGradient id="ejvxSqZK9n412-fill" x1="0" y1="0.5" x2="1" y2="0.5" spreadMethod="reflect" gradientUnits="objectBoundingBox" gradientTransform="translate(0 0)"><stop id="ejvxSqZK9n412-fill-0" offset="0%" stop-color="#f00"></stop><stop id="ejvxSqZK9n412-fill-1" offset="100%" stop-color="#2200fa"></stop></linearGradient><linearGradient id="ejvxSqZK9n412-stroke" x1="0" y1="0.5" x2="1" y2="0.5" spreadMethod="reflect" gradientUnits="objectBoundingBox" gradientTransform="translate(0 0)"><stop id="ejvxSqZK9n412-stroke-0" offset="2%" stop-color="#f00"></stop><stop id="ejvxSqZK9n412-stroke-1" offset="98%" stop-color="#2200fa"></stop><stop id="ejvxSqZK9n412-stroke-2" offset="100%" stop-color="#1d00ff"></stop></linearGradient><linearGradient id="ejvxSqZK9n414-fill" x1="-1.051285" y1="0.532902" x2="4.492849" y2="0.532902" spreadMethod="pad" gradientUnits="objectBoundingBox" gradientTransform="translate(0 0)"><stop id="ejvxSqZK9n414-fill-0" offset="0%" stop-color="#f00"></stop><stop id="ejvxSqZK9n414-fill-1" offset="100%" stop-color="#2200fa"></stop></linearGradient><linearGradient id="ejvxSqZK9n414-stroke" x1="-1.103293" y1="0.5" x2="4.528477" y2="0.5" spreadMethod="pad" gradientUnits="objectBoundingBox" gradientTransform="translate(0 0)"><stop id="ejvxSqZK9n414-stroke-0" offset="0%" stop-color="#f00"></stop><stop id="ejvxSqZK9n414-stroke-1" offset="100%" stop-color="#3100ea"></stop></linearGradient></defs><g transform="matrix(1.17067 0 0 1.17067-142.277523-45.799105)"><g transform="translate(.819275-79.8509)"><path d="M353.88631,158.626329q0,.606241,81.236221-.60624l71.536373,81.23622-110.938922,92.555257-114.022585-91.218069q72.188911-82.573411,72.188913-81.967168Z" transform="translate(.000003 0.000002)" fill="#ff5600" stroke="#ff5600" stroke-width="1.28" class="svg-elem-1"></path><path d="M271.716292,117.973029l82.170021,40.047062-72.188913,81.23622-9.981108-121.283282Z" transform="translate(1.000002 1)" fill="#fd8c02" stroke="#fd8c02" stroke-width="1.28" class="svg-elem-2"></path><path d="M208.871013,158.020091l83.519813-40.047062-11.98344,121.283282-71.536373-81.23622Z" transform="translate(225.251521 1)" fill="#ff6700" stroke="#ff6700" stroke-width="1.28" class="svg-elem-3"></path><path d="M281.697402,240.593499L394.178154,521.563944L506.658907,240.593498L395.719984,331.811567L281.697402,240.593499Z" transform="translate(.000003 0.000001)" fill="#fff" stroke="#fff" stroke-width="1.28" class="svg-elem-4"></path><path d="M247.025663,339.780166l47.945374-66.286892l99.207117,248.070671-61.635043-.000001L246.778844,405.37867l.246819-65.598504Z" transform="translate(0 0.000004)" fill="#ff6700" stroke="#ff6700" stroke-width="1.28" class="svg-elem-5"></path><path d="M247.528194,521.563945l-.74935-116.185271l85.764267,116.185275-85.014917-.000004Z" transform="translate(.000002-1)" fill="#fd4b00" stroke="#fd4b00" stroke-width="1.28" class="svg-elem-6"></path><path d="M214.466176,521.563949h32.312668l.749352-237.0556-28.96958-16.190388-69.999619,106.666086l65.907179,146.579902Z" transform="translate(1.000001-1)" fill="#fd8c02" stroke="#fd8c02" stroke-width="1.28" class="svg-elem-7"></path><path d="M121.901055,221.928093l96.657562,46.389868-69.999619,106.666086L120.719056,320l1.181999-98.071907Z" transform="translate(.000002 0)" fill="#fff" stroke-width="1.28" class="svg-elem-8"></path></g><text dx="0" dy="0" font-family="&quot;ejvxSqZK9n41:::Montserrat&quot;" font-size="128" font-weight="700" transform="translate(224.707573 552.292116)" fill="url(#ejvxSqZK9n412-fill)" stroke="url(#ejvxSqZK9n412-stroke)"><tspan y="0" font-weight="700">
CG 
</tspan></text><ellipse rx="15.907929" ry="15.907929" transform="translate(277.675131 507.459611)" fill="url(#ejvxSqZK9n414-fill)" stroke="url(#ejvxSqZK9n414-stroke)" class="svg-elem-9"></ellipse></g>
</svg>
